# xmcd
#
# Track frame offsets: 
#        150
#        12487
#        23105
#        52440
#        67827
#        82854
#        104606
#        117801
#        128533
#        152122
#        164566
#        177517
#        197864
#        219283
#        248798
#
# Disc length: 3635 seconds
#
# Revision: 1
# Processed by: cddbd v1.5.2PL0 Copyright (c) Steve Scherf et al.
# Submitted via: ExactAudioCopy v0.99pb4
#
DISCID=cd0e310f
DTITLE=JP Stingray - Blues Stringer
DYEAR=1996
DGENRE=Blues
TTITLE0=Got Ya'
TTITLE1=Stingray Blues
TTITLE2=Baby's gone good
TTITLE3=Sacrifice
TTITLE4=Baby's Walk
TTITLE5=Change in the weather
TTITLE6=Telephone Talk
TTITLE7=Ain't gonna miss you
TTITLE8=Didn't mean to hurt you
TTITLE9=I'm going home
TTITLE10=Sunshine
TTITLE11=Lonesome Road
TTITLE12=Midnite Blues
TTITLE13=When the Blues Starts calling
TTITLE14=Goodby Hurricane
EXTD=
EXTT0=
EXTT1=
EXTT2=
EXTT3=
EXTT4=
EXTT5=
EXTT6=
EXTT7=
EXTT8=
EXTT9=
EXTT10=
EXTT11=
EXTT12=
EXTT13=
EXTT14=
PLAYORDER=
